<svg xmlns="http://www.w3.org/2000/svg" width="220" height="47" fill="none" xmlns:v="https://vecta.io/nano"><path fill-rule="evenodd" d="M169.407 0l-.316.004c-2.263.092-3.808.693-4.721 1.835-1.336 1.675-1.311 4.505-1.286 7.5l.008 1.291v.318h-2.3v5.067h2.3v20.966h5.88V16.017h1.809c2.569 0 4.457-2.113 4.584-5.069h-6.393V7.547c0-1.6 1.016-2.636 2.586-2.636 1.249 0 2.75.7 3.456 2.043 1.028-1.333 1.298-2.662.778-3.864C174.993 1.242 172.427 0 169.407 0zm19.343 10.278c-1.99.096-3.751 1.492-4.839 3.83l-.59 1.268v-4.48h-4.98v26.085h5.879V26.509l.101-4.696c.328-3.827 3.177-5.886 5.689-5.886 1.358 0 2.441.605 2.985 1.64.969-.962 1.29-2.558.793-4.105-.644-2.001-2.367-3.197-4.608-3.197l-.43.014zm-36.249 0c-1.989.096-3.752 1.492-4.839 3.83l-.59 1.268v-4.48h-4.981v26.085h5.88V26.509l.101-4.696c.329-3.827 3.178-5.886 5.691-5.886 1.355 0 2.44.605 2.983 1.64.97-.962 1.292-2.558.795-4.105-.645-2.001-2.367-3.197-4.61-3.197l-.43.014zM115.869 29.82c2.044 4.91 6.376 7.725 11.886 7.725 4.84 0 8.28-1.722 10.791-5.414l-4.728-2.36c-1.64 1.639-3.857 2.575-6.12 2.575a8.06 8.06 0 0 1-1.448-.131c-3.477-.604-6.016-4.32-5.905-8.646.098-4.576 3.363-8.2 7.593-8.428.134-.006.268-.011.399-.011 3.218 0 5.553 2.209 5.636 4.192.069 1.649-1.349 2.763-3.792 2.981-.748.076-1.642.155-2.547.155-2.076 0-3.681-.438-4.886-1.338-.459 1.417-.346 2.704.334 3.741.992 1.509 3.099 2.375 5.787 2.375 1.215 0 2.514-.176 3.86-.522 5.189-1.316 6.614-5.292 6.259-8.298-.463-3.92-4.003-8.138-10.683-8.138-4.089 0-7.612 1.408-9.924 3.96-3.66 3.943-4.691 10.35-2.512 15.583v-.001zM33.141 14.238c-3.661 3.943-4.693 10.35-2.512 15.584 2.044 4.908 6.377 7.723 11.884 7.723 4.842 0 8.281-1.722 10.792-5.414l-4.728-2.36c-1.639 1.639-3.857 2.575-6.117 2.575-.489 0-.976-.043-1.449-.131-3.477-.604-6.018-4.32-5.907-8.646.1-4.576 3.364-8.2 7.594-8.428.134-.006.268-.011.398-.011 3.218 0 5.553 2.209 5.636 4.192.069 1.649-1.348 2.763-3.791 2.981-.748.076-1.64.155-2.546.155-2.076 0-3.68-.438-4.886-1.338-.46 1.417-.346 2.704.334 3.741.99 1.509 3.099 2.375 5.787 2.375 1.214 0 2.514-.176 3.86-.522 5.187-1.316 6.614-5.292 6.258-8.298-.463-3.92-4.004-8.138-10.685-8.138-4.088 0-7.611 1.408-9.922 3.96zm59.009-.402l-.526.539V11.04l-.169-.002c-2.727 0-5.662 1.577-5.662 5.04V47h5.831V26.303c0-3.154.688-10.492 7.059-10.492 4.992 0 7.266 4.177 7.266 8.057 0 4.051-2.497 8.151-7.266 8.151-1.141 0-3.813-.192-5.318-1.866-.369 1.133-.322 2.882.505 4.362.72 1.288 2.29 2.851 5.673 2.981a9.17 9.17 0 0 0 .32.006c3.017 0 6.026-1.385 8.256-3.803 2.356-2.553 3.653-5.999 3.653-9.705 0-8.851-6.029-13.626-11.701-13.626-2.915 0-5.728 1.233-7.921 3.471h-.001zm-28.94 0l-.529.539V11.04l-.167-.002c-2.728 0-5.663 1.577-5.663 5.04V47h5.83V26.303c0-3.154.689-10.492 7.06-10.492 4.993 0 7.267 4.177 7.267 8.057 0 4.051-2.497 8.151-7.267 8.151-1.141 0-3.813-.192-5.317-1.866-.369 1.133-.322 2.881.504 4.36.72 1.29 2.29 2.853 5.674 2.984l.319.005c3.017 0 6.026-1.385 8.257-3.803 2.356-2.552 3.652-5.999 3.652-9.705 0-8.851-6.028-13.626-11.702-13.626-2.914 0-5.727 1.233-7.919 3.471zm-56.351 0l-.528.539V11.04l-.168-.002C3.436 11.037.5 12.616.5 16.079V47h5.831V26.303c0-3.154.687-10.492 7.059-10.492 4.992 0 7.266 4.177 7.266 8.057 0 4.051-2.497 8.151-7.266 8.151-1.141 0-3.814-.192-5.319-1.866-.367 1.133-.32 2.882.506 4.362.72 1.288 2.289 2.851 5.676 2.981a8.99 8.99 0 0 0 .319.006c3.015 0 6.025-1.385 8.256-3.803 2.355-2.553 3.652-5.999 3.652-9.705 0-8.851-6.03-13.626-11.702-13.626-2.915 0-5.727 1.233-7.92 3.471h.001zm206.812-2.888l.024 22.755c0 4.933-2.597 7.545-7.722 7.769a9.68 9.68 0 0 1-.326.006c-2.854 0-6.552-1.253-8.372-3.985-.544 2.434-.225 4.481.952 6.094 1.558 2.137 4.633 3.363 8.434 3.363 8.16 0 12.839-4.698 12.839-12.888V10.949h-5.828l-.001-.001zm-16.6 0V28.05c0 2.94.706 5.121 2.163 6.667 1.64 1.729 3.803 2.644 6.252 2.644a9.89 9.89 0 0 0 .606-.019c3.207-.213 5.094-1.249 5.768-3.168.8-2.424-.132-4.251-.927-4.999-.012.626-.201 1.165-.567 1.608-.636.773-1.758 1.181-3.241 1.181-1.917 0-3.343-1.284-3.914-3.525-.545-2.07-.472-10.352-.426-15.302l.016-2.189h-5.73z" fill="url(#A)"/><defs><linearGradient id="A" x1=".5" y1="47" x2="219.5" y2="47" gradientUnits="userSpaceOnUse"><stop stop-color="#ee2224"/><stop offset="1" stop-color="#f16521"/></linearGradient></defs></svg>