<svg width="90" height="79" viewBox="0 0 90 79" fill="none" xmlns="http://www.w3.org/2000/svg">
<g clip-path="url(#clip0_918_1434)">
<path fill-rule="evenodd" clip-rule="evenodd" d="M4.76758 76.9574L15.4792 78.9502L41.8839 58.0257L9.99862 66.9931L4.76758 76.9574Z" fill="white" fill-opacity="0.08"/>
<path fill-rule="evenodd" clip-rule="evenodd" d="M0 55.9102L8.5522 62.6602L41.6623 56.4332L9.26815 49.5269L0 55.9102Z" fill="white" fill-opacity="0.08"/>
<path fill-rule="evenodd" clip-rule="evenodd" d="M6.31934 33.7671C7.68401 37.1328 9.04868 40.4985 10.4138 43.8642L42.2702 54.8281C34.024 47.4864 25.7778 40.145 17.5316 32.8033C13.7943 33.1246 10.0566 33.4458 6.31934 33.7671Z" fill="white" fill-opacity="0.08"/>
<path fill-rule="evenodd" clip-rule="evenodd" d="M31.2005 30.2413L30.0527 37.0935L43.697 53.689L37.6135 33.4622L31.2005 30.2413Z" fill="white" fill-opacity="0.08"/>
<path fill-rule="evenodd" clip-rule="evenodd" d="M46.079 15.7902L39.2891 23.4919L45.3614 53.4458L52.419 24.1947L46.079 15.7902Z" fill="white" fill-opacity="0.08"/>
<path fill-rule="evenodd" clip-rule="evenodd" d="M58.9598 33.3643L53.1716 35.7348L46.9404 54.0459L59.5359 39.7996L58.9598 33.3643Z" fill="white" fill-opacity="0.08"/>
<path fill-rule="evenodd" clip-rule="evenodd" d="M84.0055 34.3286L73.1974 32.9532L48.0361 55.3579L79.3548 44.5762L84.0055 34.3286Z" fill="white" fill-opacity="0.08"/>
<path fill-rule="evenodd" clip-rule="evenodd" d="M89.9999 56.1052L81.2209 49.6526L48.3438 57.0125L80.9565 62.8027L89.9999 56.1052Z" fill="white" fill-opacity="0.08"/>
<path fill-rule="evenodd" clip-rule="evenodd" d="M85.1239 77.1649L80.3659 67.3635L47.8496 58.5458L74.0003 78.8735L85.1239 77.1649Z" fill="white" fill-opacity="0.08"/>
</g>
<defs>
<clipPath id="clip0_918_1434">
<rect width="90" height="78.95" fill="white" transform="matrix(1 0 0 -1 0 78.9502)"/>
</clipPath>
</defs>
</svg>
